<svg width="32" height="32" viewBox="0 0 32 32" fill="none" xmlns="http://www.w3.org/2000/svg">
<defs>
        <linearGradient id="primary-color">
          <stop offset="0%" stop-color="#e5760f" />
          <stop offset="100%" stop-color="#ff00e5" />
        </linearGradient>
      </defs>
<path d="M5.33325 15.6343C5.33325 15.128 5.70946 14.7096 6.19756 14.6434L6.33325 14.6343L26.3333 14.6343C26.8855 14.6343 27.3333 15.082 27.3333 15.6343C27.3333 16.1405 26.957 16.5589 26.4689 16.6251L26.3333 16.6343H6.33325C5.78097 16.6343 5.33325 16.1866 5.33325 15.6343Z" fill="#040818"/>
<path d="M17.5613 8.31029C17.1699 7.9206 17.1685 7.28744 17.5582 6.89608C17.9125 6.54029 18.468 6.50682 18.8601 6.79645L18.9724 6.89303L27.0391 14.925C27.3959 15.2803 27.4284 15.8378 27.1365 16.2299L27.0392 16.3422L18.9725 24.3756C18.5812 24.7653 17.948 24.764 17.5583 24.3726C17.204 24.0169 17.1729 23.4613 17.4641 23.0704L17.5612 22.9584L24.9159 15.6333L17.5613 8.31029Z" fill="#040818"/>
</svg>
