<svg width="512" height="512" viewBox="0 0 512 512" fill="none" xmlns="http://www.w3.org/2000/svg">
<path fill-rule="evenodd" clip-rule="evenodd" d="M326.562 113.348L271.833 113.348L271.833 371.344V380.987L262.451 383.212L232.498 390.319L188.958 400.648V129.766H262.451L262.451 113.348V103.965H271.833L326.562 103.965L335.944 103.965V113.348L335.944 365.777L326.562 368.003V357.281H326.562L326.562 113.348Z" fill="url(#paint0_linear_202_34)"/>
<path d="M292.404 122.681L165.274 152.842L108.902 166.216L47.6909 180.738L44.0769 110.965L406.084 24.9999L409.702 94.853L348.775 109.308L292.404 122.681Z" fill="white"/>
<path fill-rule="evenodd" clip-rule="evenodd" d="M326.562 377.645L361.793 369.287L418.165 355.913L468.424 343.989L471.051 394.713L127.605 476.27L124.973 425.471L178.292 412.821L234.664 399.447L271.833 390.629V380.987L232.498 390.319L176.126 403.692L115.2 418.147L118.324 478.474L118.818 488L128.098 485.796L480.825 402.035L477.704 341.788L477.211 332.262L467.93 334.464L415.999 346.784L359.628 360.158L326.562 368.003V377.645Z" fill="white"/>
<defs>
<linearGradient id="paint0_linear_202_34" x1="262.451" y1="103.965" x2="262.451" y2="400.648" gradientUnits="userSpaceOnUse">
<stop stop-color="#E8E8E8"/>
<stop offset="1" stop-color="white"/>
</linearGradient>
</defs>
</svg>
