<?xml version="1.0" encoding="utf-8"?>
<!-- Generator: Adobe Illustrator 27.6.1, SVG Export Plug-In . SVG Version: 6.00 Build 0)  -->
<svg version="1.1" id="Layer_1" xmlns="http://www.w3.org/2000/svg" xmlns:xlink="http://www.w3.org/1999/xlink" x="0px" y="0px"
	 viewBox="0 0 69.1 64" style="enable-background:new 0 0 69.1 64;" xml:space="preserve">
<style type="text/css">
	.st0{fill:#18727D;}
	.st1{fill:#229A9A;}
	.st2{fill:#25924A;}
	.st3{fill:#5EB84E;}
</style>
<g>
	<path class="st0" d="M52.8,29.2l-2.6,2.5L25.7,56.2c-0.6,0.6-1.5,0.7-2.3-0.1l-4.8-4.7c-0.6-0.6-0.6-1.5,0.1-2.2l20-20L52.8,29.2z"
		/>
	<path class="st1" d="M52.8,29.2l10.9,10.9c0.5,0.5,0.6,1.7-0.1,2.4l-4.8,4.7c-0.6,0.6-1.5,0.5-2.1-0.1l-18-18L52.8,29.2z"/>
	<path class="st2" d="M16.3,34.3l2.5-2.5l24-24c0.6-0.6,1.6-0.7,2.3,0.1l4.8,4.7c0.6,0.6,0.6,1.5-0.1,2.2L30.3,34.3L16.3,34.3z"/>
	<path class="st3" d="M16.3,34.3L5.4,23.4c-0.5-0.5-0.6-1.7,0.1-2.4l4.7-4.7c0.6-0.6,1.5-0.5,2.1,0.1l18,18L16.3,34.3z"/>
</g>
</svg>
